<svg width="1440" height="100" viewBox="0 0 1440 100" fill="none" xmlns="http://www.w3.org/2000/svg">
<rect width="1440" height="100" fill="white"/>
<line x1="313" y1="31" x2="313" y2="68" stroke="#9F9F9F" stroke-width="2"/>
<path d="M354.688 47.112C354.688 48.04 354.368 48.8133 353.728 49.432C353.099 50.04 352.133 50.344 350.832 50.344H348.688V55H347.232V43.848H350.832C352.091 43.848 353.045 44.152 353.696 44.76C354.357 45.368 354.688 46.152 354.688 47.112ZM350.832 49.144C351.643 49.144 352.24 48.968 352.624 48.616C353.008 48.264 353.2 47.7627 353.2 47.112C353.2 45.736 352.411 45.048 350.832 45.048H348.688V49.144H350.832ZM357.954 47.656C358.21 47.1547 358.572 46.7653 359.042 46.488C359.522 46.2107 360.103 46.072 360.786 46.072V47.576H360.402C358.77 47.576 357.954 48.4613 357.954 50.232V55H356.498V46.232H357.954V47.656ZM366.29 55.144C365.469 55.144 364.722 54.9573 364.05 54.584C363.389 54.2107 362.866 53.6827 362.482 53C362.109 52.3067 361.922 51.5067 361.922 50.6C361.922 49.704 362.114 48.9147 362.498 48.232C362.893 47.5387 363.426 47.0107 364.098 46.648C364.77 46.2747 365.522 46.088 366.354 46.088C367.186 46.088 367.938 46.2747 368.61 46.648C369.282 47.0107 369.81 47.5333 370.194 48.216C370.589 48.8987 370.786 49.6933 370.786 50.6C370.786 51.5067 370.584 52.3067 370.178 53C369.784 53.6827 369.245 54.2107 368.562 54.584C367.88 54.9573 367.122 55.144 366.29 55.144ZM366.29 53.864C366.813 53.864 367.304 53.7413 367.762 53.496C368.221 53.2507 368.589 52.8827 368.866 52.392C369.154 51.9013 369.298 51.304 369.298 50.6C369.298 49.896 369.16 49.2987 368.882 48.808C368.605 48.3173 368.242 47.9547 367.794 47.72C367.346 47.4747 366.861 47.352 366.338 47.352C365.805 47.352 365.314 47.4747 364.866 47.72C364.429 47.9547 364.077 48.3173 363.81 48.808C363.544 49.2987 363.41 49.896 363.41 50.6C363.41 51.3147 363.538 51.9173 363.794 52.408C364.061 52.8987 364.413 53.2667 364.85 53.512C365.288 53.7467 365.768 53.864 366.29 53.864ZM372.157 50.584C372.157 49.688 372.338 48.904 372.701 48.232C373.063 47.5493 373.559 47.0213 374.189 46.648C374.829 46.2747 375.543 46.088 376.333 46.088C377.015 46.088 377.65 46.248 378.237 46.568C378.823 46.8773 379.271 47.288 379.581 47.8V43.16H381.053V55H379.581V53.352C379.293 53.8747 378.866 54.3067 378.301 54.648C377.735 54.9787 377.074 55.144 376.317 55.144C375.538 55.144 374.829 54.952 374.189 54.568C373.559 54.184 373.063 53.6453 372.701 52.952C372.338 52.2587 372.157 51.4693 372.157 50.584ZM379.581 50.6C379.581 49.9387 379.447 49.3627 379.181 48.872C378.914 48.3813 378.551 48.008 378.093 47.752C377.645 47.4853 377.149 47.352 376.605 47.352C376.061 47.352 375.565 47.48 375.117 47.736C374.669 47.992 374.311 48.3653 374.045 48.856C373.778 49.3467 373.645 49.9227 373.645 50.584C373.645 51.256 373.778 51.8427 374.045 52.344C374.311 52.8347 374.669 53.2133 375.117 53.48C375.565 53.736 376.061 53.864 376.605 53.864C377.149 53.864 377.645 53.736 378.093 53.48C378.551 53.2133 378.914 52.8347 379.181 52.344C379.447 51.8427 379.581 51.2613 379.581 50.6ZM391.289 46.232V55H389.833V53.704C389.556 54.152 389.167 54.504 388.665 54.76C388.175 55.0053 387.631 55.128 387.033 55.128C386.351 55.128 385.737 54.9893 385.193 54.712C384.649 54.424 384.217 53.9973 383.897 53.432C383.588 52.8667 383.433 52.1787 383.433 51.368V46.232H384.873V51.176C384.873 52.04 385.092 52.7067 385.529 53.176C385.967 53.6347 386.564 53.864 387.321 53.864C388.1 53.864 388.713 53.624 389.161 53.144C389.609 52.664 389.833 51.9653 389.833 51.048V46.232H391.289ZM393.204 50.6C393.204 49.6933 393.385 48.904 393.748 48.232C394.11 47.5493 394.612 47.0213 395.252 46.648C395.902 46.2747 396.644 46.088 397.476 46.088C398.553 46.088 399.438 46.3493 400.132 46.872C400.836 47.3947 401.3 48.12 401.524 49.048H399.956C399.806 48.5147 399.513 48.0933 399.076 47.784C398.649 47.4747 398.116 47.32 397.476 47.32C396.644 47.32 395.972 47.608 395.46 48.184C394.948 48.7493 394.692 49.5547 394.692 50.6C394.692 51.656 394.948 52.472 395.46 53.048C395.972 53.624 396.644 53.912 397.476 53.912C398.116 53.912 398.649 53.7627 399.076 53.464C399.502 53.1653 399.796 52.7387 399.956 52.184H401.524C401.289 53.08 400.82 53.8 400.116 54.344C399.412 54.8773 398.532 55.144 397.476 55.144C396.644 55.144 395.902 54.9573 395.252 54.584C394.612 54.2107 394.11 53.6827 393.748 53C393.385 52.3173 393.204 51.5173 393.204 50.6ZM405.242 47.432V52.6C405.242 53.0267 405.333 53.3307 405.514 53.512C405.696 53.6827 406.01 53.768 406.458 53.768H407.53V55H406.218C405.408 55 404.8 54.8133 404.394 54.44C403.989 54.0667 403.786 53.4533 403.786 52.6V47.432H402.65V46.232H403.786V44.024H405.242V46.232H407.53V47.432H405.242ZM421.016 47.112C421.016 48.04 420.696 48.8133 420.056 49.432C419.427 50.04 418.461 50.344 417.16 50.344H415.016V55H413.56V43.848H417.16C418.419 43.848 419.373 44.152 420.024 44.76C420.685 45.368 421.016 46.152 421.016 47.112ZM417.16 49.144C417.971 49.144 418.568 48.968 418.952 48.616C419.336 48.264 419.528 47.7627 419.528 47.112C419.528 45.736 418.739 45.048 417.16 45.048H415.016V49.144H417.16ZM422.282 50.584C422.282 49.688 422.463 48.904 422.826 48.232C423.188 47.5493 423.684 47.0213 424.314 46.648C424.954 46.2747 425.663 46.088 426.442 46.088C427.21 46.088 427.876 46.2533 428.442 46.584C429.007 46.9147 429.428 47.3307 429.706 47.832V46.232H431.178V55H429.706V53.368C429.418 53.88 428.986 54.3067 428.41 54.648C427.844 54.9787 427.183 55.144 426.426 55.144C425.647 55.144 424.943 54.952 424.314 54.568C423.684 54.184 423.188 53.6453 422.826 52.952C422.463 52.2587 422.282 51.4693 422.282 50.584ZM429.706 50.6C429.706 49.9387 429.572 49.3627 429.306 48.872C429.039 48.3813 428.676 48.008 428.218 47.752C427.77 47.4853 427.274 47.352 426.73 47.352C426.186 47.352 425.69 47.48 425.242 47.736C424.794 47.992 424.436 48.3653 424.17 48.856C423.903 49.3467 423.77 49.9227 423.77 50.584C423.77 51.256 423.903 51.8427 424.17 52.344C424.436 52.8347 424.794 53.2133 425.242 53.48C425.69 53.736 426.186 53.864 426.73 53.864C427.274 53.864 427.77 53.736 428.218 53.48C428.676 53.2133 429.039 52.8347 429.306 52.344C429.572 51.8427 429.706 51.2613 429.706 50.6ZM437.254 46.088C438.012 46.088 438.673 46.2533 439.238 46.584C439.814 46.9147 440.241 47.3307 440.518 47.832V46.232H441.99V55.192C441.99 55.992 441.82 56.7013 441.478 57.32C441.137 57.9493 440.646 58.44 440.006 58.792C439.377 59.144 438.641 59.32 437.798 59.32C436.646 59.32 435.686 59.048 434.918 58.504C434.15 57.96 433.697 57.2187 433.558 56.28H434.998C435.158 56.8133 435.489 57.24 435.99 57.56C436.492 57.8907 437.094 58.056 437.798 58.056C438.598 58.056 439.249 57.8053 439.75 57.304C440.262 56.8027 440.518 56.0987 440.518 55.192V53.352C440.23 53.864 439.804 54.2907 439.238 54.632C438.673 54.9733 438.012 55.144 437.254 55.144C436.476 55.144 435.766 54.952 435.126 54.568C434.497 54.184 434.001 53.6453 433.638 52.952C433.276 52.2587 433.094 51.4693 433.094 50.584C433.094 49.688 433.276 48.904 433.638 48.232C434.001 47.5493 434.497 47.0213 435.126 46.648C435.766 46.2747 436.476 46.088 437.254 46.088ZM440.518 50.6C440.518 49.9387 440.385 49.3627 440.118 48.872C439.852 48.3813 439.489 48.008 439.03 47.752C438.582 47.4853 438.086 47.352 437.542 47.352C436.998 47.352 436.502 47.48 436.054 47.736C435.606 47.992 435.249 48.3653 434.982 48.856C434.716 49.3467 434.582 49.9227 434.582 50.584C434.582 51.256 434.716 51.8427 434.982 52.344C435.249 52.8347 435.606 53.2133 436.054 53.48C436.502 53.736 436.998 53.864 437.542 53.864C438.086 53.864 438.582 53.736 439.03 53.48C439.489 53.2133 439.852 52.8347 440.118 52.344C440.385 51.8427 440.518 51.2613 440.518 50.6ZM452.451 50.28C452.451 50.5573 452.435 50.8507 452.403 51.16H445.395C445.448 52.024 445.741 52.7013 446.275 53.192C446.819 53.672 447.475 53.912 448.243 53.912C448.872 53.912 449.395 53.768 449.811 53.48C450.237 53.1813 450.536 52.7867 450.707 52.296H452.275C452.04 53.1387 451.571 53.8267 450.867 54.36C450.163 54.8827 449.288 55.144 448.243 55.144C447.411 55.144 446.664 54.9573 446.003 54.584C445.352 54.2107 444.84 53.6827 444.467 53C444.093 52.3067 443.907 51.5067 443.907 50.6C443.907 49.6933 444.088 48.8987 444.451 48.216C444.813 47.5333 445.32 47.0107 445.971 46.648C446.632 46.2747 447.389 46.088 448.243 46.088C449.075 46.088 449.811 46.2693 450.451 46.632C451.091 46.9947 451.581 47.496 451.923 48.136C452.275 48.7653 452.451 49.48 452.451 50.28ZM450.947 49.976C450.947 49.4213 450.824 48.9467 450.579 48.552C450.333 48.1467 449.997 47.8427 449.571 47.64C449.155 47.4267 448.691 47.32 448.179 47.32C447.443 47.32 446.813 47.5547 446.291 48.024C445.779 48.4933 445.485 49.144 445.411 49.976H450.947Z" fill="black"/>
<path d="M108.824 44.848V56H107.368V50.944H101.688V56H100.232V44.848H101.688V49.744H107.368V44.848H108.824ZM115.134 56.144C114.313 56.144 113.566 55.9573 112.894 55.584C112.233 55.2107 111.71 54.6827 111.326 54C110.953 53.3067 110.766 52.5067 110.766 51.6C110.766 50.704 110.958 49.9147 111.342 49.232C111.737 48.5387 112.27 48.0107 112.942 47.648C113.614 47.2747 114.366 47.088 115.198 47.088C116.03 47.088 116.782 47.2747 117.454 47.648C118.126 48.0107 118.654 48.5333 119.038 49.216C119.433 49.8987 119.63 50.6933 119.63 51.6C119.63 52.5067 119.427 53.3067 119.022 54C118.627 54.6827 118.089 55.2107 117.406 55.584C116.723 55.9573 115.966 56.144 115.134 56.144ZM115.134 54.864C115.657 54.864 116.147 54.7413 116.606 54.496C117.065 54.2507 117.433 53.8827 117.71 53.392C117.998 52.9013 118.142 52.304 118.142 51.6C118.142 50.896 118.003 50.2987 117.726 49.808C117.449 49.3173 117.086 48.9547 116.638 48.72C116.19 48.4747 115.705 48.352 115.182 48.352C114.649 48.352 114.158 48.4747 113.71 48.72C113.273 48.9547 112.921 49.3173 112.654 49.808C112.387 50.2987 112.254 50.896 112.254 51.6C112.254 52.3147 112.382 52.9173 112.638 53.408C112.905 53.8987 113.257 54.2667 113.694 54.512C114.131 54.7467 114.611 54.864 115.134 54.864ZM132.089 47.072C132.771 47.072 133.379 47.216 133.913 47.504C134.446 47.7813 134.867 48.2027 135.177 48.768C135.486 49.3333 135.641 50.0213 135.641 50.832V56H134.201V51.04C134.201 50.1653 133.982 49.4987 133.545 49.04C133.118 48.5707 132.537 48.336 131.801 48.336C131.043 48.336 130.441 48.5813 129.993 49.072C129.545 49.552 129.321 50.2507 129.321 51.168V56H127.881V51.04C127.881 50.1653 127.662 49.4987 127.225 49.04C126.798 48.5707 126.217 48.336 125.481 48.336C124.723 48.336 124.121 48.5813 123.673 49.072C123.225 49.552 123.001 50.2507 123.001 51.168V56H121.545V47.232H123.001V48.496C123.289 48.0373 123.673 47.6853 124.153 47.44C124.643 47.1947 125.182 47.072 125.769 47.072C126.505 47.072 127.155 47.2373 127.721 47.568C128.286 47.8987 128.707 48.384 128.985 49.024C129.23 48.4053 129.635 47.9253 130.201 47.584C130.766 47.2427 131.395 47.072 132.089 47.072ZM146.029 51.28C146.029 51.5573 146.013 51.8507 145.981 52.16H138.973C139.026 53.024 139.32 53.7013 139.853 54.192C140.397 54.672 141.053 54.912 141.821 54.912C142.45 54.912 142.973 54.768 143.389 54.48C143.816 54.1813 144.114 53.7867 144.285 53.296H145.853C145.618 54.1387 145.149 54.8267 144.445 55.36C143.741 55.8827 142.866 56.144 141.821 56.144C140.989 56.144 140.242 55.9573 139.581 55.584C138.93 55.2107 138.418 54.6827 138.045 54C137.672 53.3067 137.485 52.5067 137.485 51.6C137.485 50.6933 137.666 49.8987 138.029 49.216C138.392 48.5333 138.898 48.0107 139.549 47.648C140.21 47.2747 140.968 47.088 141.821 47.088C142.653 47.088 143.389 47.2693 144.029 47.632C144.669 47.9947 145.16 48.496 145.501 49.136C145.853 49.7653 146.029 50.48 146.029 51.28ZM144.525 50.976C144.525 50.4213 144.402 49.9467 144.157 49.552C143.912 49.1467 143.576 48.8427 143.149 48.64C142.733 48.4267 142.269 48.32 141.757 48.32C141.021 48.32 140.392 48.5547 139.869 49.024C139.357 49.4933 139.064 50.144 138.989 50.976H144.525Z" fill="#9F9F9F"/>
<path d="M167 55L172 50L167 45L168 43L175 50L168 57L167 55Z" fill="black"/>
<path d="M209.768 56.112C209.032 56.112 208.371 55.984 207.784 55.728C207.208 55.4613 206.755 55.0987 206.424 54.64C206.093 54.1707 205.923 53.632 205.912 53.024H207.464C207.517 53.5467 207.731 53.9893 208.104 54.352C208.488 54.704 209.043 54.88 209.768 54.88C210.461 54.88 211.005 54.7093 211.4 54.368C211.805 54.016 212.008 53.568 212.008 53.024C212.008 52.5973 211.891 52.2507 211.656 51.984C211.421 51.7173 211.128 51.5147 210.776 51.376C210.424 51.2373 209.949 51.088 209.352 50.928C208.616 50.736 208.024 50.544 207.576 50.352C207.139 50.16 206.76 49.8613 206.44 49.456C206.131 49.04 205.976 48.4853 205.976 47.792C205.976 47.184 206.131 46.6453 206.44 46.176C206.749 45.7067 207.181 45.344 207.736 45.088C208.301 44.832 208.947 44.704 209.672 44.704C210.717 44.704 211.571 44.9653 212.232 45.488C212.904 46.0107 213.283 46.704 213.368 47.568H211.768C211.715 47.1413 211.491 46.768 211.096 46.448C210.701 46.1173 210.179 45.952 209.528 45.952C208.92 45.952 208.424 46.112 208.04 46.432C207.656 46.7413 207.464 47.1787 207.464 47.744C207.464 48.1493 207.576 48.48 207.8 48.736C208.035 48.992 208.317 49.1893 208.648 49.328C208.989 49.456 209.464 49.6053 210.072 49.776C210.808 49.9787 211.4 50.1813 211.848 50.384C212.296 50.576 212.68 50.88 213 51.296C213.32 51.7013 213.48 52.256 213.48 52.96C213.48 53.504 213.336 54.016 213.048 54.496C212.76 54.976 212.333 55.3653 211.768 55.664C211.203 55.9627 210.536 56.112 209.768 56.112ZM219.975 47.072C220.636 47.072 221.233 47.216 221.767 47.504C222.3 47.7813 222.716 48.2027 223.015 48.768C223.324 49.3333 223.479 50.0213 223.479 50.832V56H222.039V51.04C222.039 50.1653 221.82 49.4987 221.383 49.04C220.945 48.5707 220.348 48.336 219.591 48.336C218.823 48.336 218.209 48.576 217.751 49.056C217.303 49.536 217.079 50.2347 217.079 51.152V56H215.623V44.16H217.079V48.48C217.367 48.032 217.761 47.6853 218.263 47.44C218.775 47.1947 219.345 47.072 219.975 47.072ZM229.681 56.144C228.86 56.144 228.113 55.9573 227.441 55.584C226.78 55.2107 226.257 54.6827 225.873 54C225.5 53.3067 225.313 52.5067 225.313 51.6C225.313 50.704 225.505 49.9147 225.889 49.232C226.284 48.5387 226.817 48.0107 227.489 47.648C228.161 47.2747 228.913 47.088 229.745 47.088C230.577 47.088 231.329 47.2747 232.001 47.648C232.673 48.0107 233.201 48.5333 233.585 49.216C233.98 49.8987 234.177 50.6933 234.177 51.6C234.177 52.5067 233.974 53.3067 233.569 54C233.174 54.6827 232.636 55.2107 231.953 55.584C231.27 55.9573 230.513 56.144 229.681 56.144ZM229.681 54.864C230.204 54.864 230.694 54.7413 231.153 54.496C231.612 54.2507 231.98 53.8827 232.257 53.392C232.545 52.9013 232.689 52.304 232.689 51.6C232.689 50.896 232.55 50.2987 232.273 49.808C231.996 49.3173 231.633 48.9547 231.185 48.72C230.737 48.4747 230.252 48.352 229.729 48.352C229.196 48.352 228.705 48.4747 228.257 48.72C227.82 48.9547 227.468 49.3173 227.201 49.808C226.934 50.2987 226.801 50.896 226.801 51.6C226.801 52.3147 226.929 52.9173 227.185 53.408C227.452 53.8987 227.804 54.2667 228.241 54.512C228.678 54.7467 229.158 54.864 229.681 54.864ZM237.547 48.848C237.835 48.3467 238.262 47.9307 238.827 47.6C239.403 47.2587 240.07 47.088 240.827 47.088C241.606 47.088 242.31 47.2747 242.939 47.648C243.579 48.0213 244.081 48.5493 244.443 49.232C244.806 49.904 244.987 50.688 244.987 51.584C244.987 52.4693 244.806 53.2587 244.443 53.952C244.081 54.6453 243.579 55.184 242.939 55.568C242.31 55.952 241.606 56.144 240.827 56.144C240.081 56.144 239.419 55.9787 238.843 55.648C238.278 55.3067 237.846 54.8853 237.547 54.384V60.16H236.091V47.232H237.547V48.848ZM243.499 51.584C243.499 50.9227 243.366 50.3467 243.099 49.856C242.833 49.3653 242.47 48.992 242.011 48.736C241.563 48.48 241.067 48.352 240.523 48.352C239.99 48.352 239.494 48.4853 239.035 48.752C238.587 49.008 238.225 49.3867 237.947 49.888C237.681 50.3787 237.547 50.9493 237.547 51.6C237.547 52.2613 237.681 52.8427 237.947 53.344C238.225 53.8347 238.587 54.2133 239.035 54.48C239.494 54.736 239.99 54.864 240.523 54.864C241.067 54.864 241.563 54.736 242.011 54.48C242.47 54.2133 242.833 53.8347 243.099 53.344C243.366 52.8427 243.499 52.256 243.499 51.584Z" fill="#9F9F9F"/>
<path d="M273 55L278 50L273 45L274 43L281 50L274 57L273 55Z" fill="black"/>
</svg>
